<svg width="456" height="75" viewBox="0 0 456 75" fill="none" xmlns="http://www.w3.org/2000/svg">
<path d="M0.847 3.112H17.167V35.272L22.447 30.28L36.655 3.112H56.527L34.927 34.696L57.391 73H38.095L22.543 43.912L17.167 48.232V73H0.847V3.112ZM62.059 1.192L78.283 0.807997V73H62.059V1.192ZM112.394 74.152C109.194 74.152 106.058 73.672 102.986 72.712C99.9138 71.688 97.1298 70.152 94.6338 68.104C92.2018 66.056 90.2498 63.368 88.7778 60.04C87.3058 56.712 86.5698 52.712 86.5698 48.04C86.5698 43.368 87.3058 39.368 88.7778 36.04C90.2498 32.712 92.2018 30.024 94.6338 27.976C97.1298 25.928 99.9138 24.424 102.986 23.464C106.058 22.44 109.194 21.928 112.394 21.928C115.594 21.928 118.73 22.44 121.802 23.464C124.938 24.424 127.722 25.928 130.154 27.976C132.65 30.024 134.602 32.712 136.01 36.04C137.482 39.368 138.218 43.368 138.218 48.04C138.218 52.712 137.482 56.712 136.01 60.04C134.602 63.368 132.65 66.056 130.154 68.104C127.722 70.152 124.938 71.688 121.802 72.712C118.73 73.672 115.594 74.152 112.394 74.152ZM112.394 62.44C113.738 62.44 114.954 62.184 116.042 61.672C117.13 61.16 118.09 60.36 118.922 59.272C119.754 58.184 120.394 56.712 120.842 54.856C121.29 53 121.514 50.728 121.514 48.04C121.514 45.352 121.29 43.08 120.842 41.224C120.394 39.368 119.754 37.896 118.922 36.808C118.09 35.72 117.13 34.92 116.042 34.408C114.954 33.896 113.738 33.64 112.394 33.64C111.114 33.64 109.898 33.896 108.746 34.408C107.658 34.92 106.698 35.72 105.866 36.808C105.034 37.896 104.394 39.368 103.946 41.224C103.498 43.08 103.274 45.352 103.274 48.04C103.274 50.728 103.498 53 103.946 54.856C104.394 56.712 105.034 58.184 105.866 59.272C106.698 60.36 107.658 61.16 108.746 61.672C109.898 62.184 111.114 62.44 112.394 62.44ZM163.143 74.152C158.791 74.152 155.367 73.192 152.871 71.272C150.439 69.288 148.711 66.632 147.687 63.304C146.727 59.976 146.247 56.328 146.247 52.36V23.08H162.471V52.168C162.471 55.112 163.015 57.384 164.103 58.984C165.191 60.52 167.015 61.288 169.575 61.288C170.791 61.288 171.879 61.096 172.839 60.712C173.863 60.328 174.759 59.848 175.527 59.272C176.359 58.632 177.095 57.96 177.735 57.256V23.08H193.958V56.488C193.958 59.624 193.958 62.568 193.958 65.32C194.023 68.072 194.119 70.632 194.247 73H183.015L179.463 66.664H179.079C178.055 67.816 176.743 68.968 175.143 70.12C173.543 71.272 171.719 72.232 169.671 73C167.623 73.768 165.447 74.152 163.143 74.152ZM222.705 74.152C219.441 74.152 216.753 73.704 214.641 72.808C212.593 71.848 210.993 70.504 209.841 68.776C208.689 67.048 207.889 64.968 207.441 62.536C206.993 60.104 206.769 57.32 206.769 54.184V34.696H200.721L201.489 23.464L207.537 23.08L208.497 11.656L222.897 8.776V23.08H233.841L233.073 34.696H222.897V52.744C222.897 54.408 223.089 55.848 223.473 57.064C223.921 58.216 224.625 59.112 225.585 59.752C226.545 60.392 227.889 60.712 229.617 60.712C230.321 60.712 230.993 60.712 231.633 60.712C232.337 60.648 232.977 60.552 233.553 60.424L233.649 72.616C232.625 72.872 231.025 73.192 228.849 73.576C226.737 73.96 224.689 74.152 222.705 74.152ZM295.61 74.152C289.402 74.152 284.09 73.224 279.674 71.368C275.258 69.448 271.642 66.856 268.826 63.592C266.01 60.264 263.93 56.488 262.586 52.264C261.306 47.976 260.666 43.496 260.666 38.824C260.666 31.272 262.138 24.744 265.082 19.24C268.026 13.736 272.186 9.48 277.562 6.472C282.938 3.464 289.178 1.96 296.282 1.96C299.93 1.96 303.322 2.28 306.458 2.92C309.658 3.496 312.122 4.2 313.85 5.032L311.93 18.088C309.946 17.32 307.674 16.68 305.114 16.168C302.618 15.656 300.026 15.4 297.338 15.4C293.562 15.4 290.17 16.232 287.162 17.896C284.218 19.56 281.914 22.056 280.25 25.384C278.586 28.712 277.754 32.968 277.754 38.152C277.754 42.952 278.522 47.048 280.058 50.44C281.594 53.768 283.834 56.328 286.778 58.12C289.786 59.848 293.37 60.712 297.53 60.712C299.898 60.712 302.362 60.488 304.922 60.04C307.546 59.592 309.818 58.984 311.738 58.216L313.274 71.176C311.546 71.944 309.082 72.616 305.882 73.192C302.682 73.832 299.258 74.152 295.61 74.152ZM321.653 1.192L337.877 0.807997V73H321.653V1.192ZM365.268 74.152C360.916 74.152 357.492 73.192 354.996 71.272C352.564 69.288 350.836 66.632 349.812 63.304C348.852 59.976 348.372 56.328 348.372 52.36V23.08H364.596V52.168C364.596 55.112 365.14 57.384 366.228 58.984C367.316 60.52 369.14 61.288 371.7 61.288C372.916 61.288 374.004 61.096 374.964 60.712C375.988 60.328 376.884 59.848 377.652 59.272C378.484 58.632 379.22 57.96 379.86 57.256V23.08H396.083V56.488C396.083 59.624 396.083 62.568 396.083 65.32C396.148 68.072 396.244 70.632 396.372 73H385.14L381.588 66.664H381.204C380.18 67.816 378.868 68.968 377.268 70.12C375.668 71.272 373.844 72.232 371.796 73C369.748 73.768 367.572 74.152 365.268 74.152ZM435.006 74.152C432.958 74.152 431.102 73.864 429.438 73.288C427.838 72.776 426.366 71.976 425.022 70.888C423.678 69.736 422.462 68.36 421.374 66.76H421.182L417.534 73H406.206C406.27 71.976 406.334 70.728 406.398 69.256C406.462 67.72 406.494 66.12 406.494 64.456C406.558 62.728 406.59 61.128 406.59 59.656C406.59 58.184 406.59 56.968 406.59 56.008V1.192L422.814 0.807997V28.456H423.006C424.158 26.984 425.918 25.544 428.286 24.136C430.718 22.664 433.502 21.928 436.638 21.928C440.67 21.928 444.126 22.984 447.006 25.096C449.886 27.144 452.094 30.024 453.63 33.736C455.166 37.448 455.934 41.832 455.934 46.888C455.934 52.392 455.006 57.192 453.15 61.288C451.294 65.32 448.766 68.488 445.566 70.792C442.43 73.032 438.91 74.152 435.006 74.152ZM430.398 61.576C432.638 61.576 434.398 60.936 435.678 59.656C436.958 58.312 437.854 56.584 438.366 54.472C438.942 52.36 439.23 50.088 439.23 47.656C439.23 44.392 438.814 41.832 437.982 39.976C437.214 38.12 436.19 36.808 434.91 36.04C433.63 35.208 432.222 34.792 430.686 34.792C429.598 34.792 428.542 34.984 427.518 35.368C426.494 35.752 425.566 36.296 424.734 37C423.966 37.64 423.326 38.344 422.814 39.112V54.856C422.942 55.944 423.326 57.032 423.966 58.12C424.67 59.144 425.566 59.976 426.654 60.616C427.806 61.256 429.054 61.576 430.398 61.576Z" fill="url(#paint0_linear_2569_2050)"/>
<defs>
<linearGradient id="paint0_linear_2569_2050" x1="216.5" y1="-17" x2="216.5" y2="79" gradientUnits="userSpaceOnUse">
<stop stop-color="#3CAC88"/>
<stop offset="1" stop-color="#2B8B76"/>
</linearGradient>
</defs>
</svg>
